# xmcd
#
# Track frame offsets: 
#        150
#        16997
#        32047
#        46550
#        57670
#        71185
#        84675
#        101490
#        117700
#        133510
#
# Disc length: 1977 seconds
#
# Revision: 2
# Processed by: cddbd v1.4PL0 Copyright (c) Steve Scherf et al.
# Submitted via: ExactAudioCopy v0.90b4
#
DISCID=8a07b70a
DTITLE=Sylvia - Sylvia
DYEAR=1900
DGENRE=Country
TTITLE0=Like Nothing Ever Happened
TTITLE1=Nobody
TTITLE2=Tumbleweed
TTITLE3=Drifter
TTITLE4=Cry Just A Little Bit
TTITLE5=Fallin' In Love
TTITLE6=Snapshot
TTITLE7=I Never Quite Got Back (From Loving You)
TTITLE8=The Boy Gets Around
TTITLE9=Straight From My Heart
EXTD=
EXTT0=
EXTT1=
EXTT2=
EXTT3=
EXTT4=
EXTT5=
EXTT6=
EXTT7=
EXTT8=
EXTT9=
PLAYORDER=
